<svg xmlns="http://www.w3.org/2000/svg" viewBox="0 0 2764.56 205.11"><defs><style>.cls-1{fill:#b6555e;stroke-width:5.22px;}.cls-1,.cls-10,.cls-11,.cls-12,.cls-13,.cls-2,.cls-3,.cls-4,.cls-5,.cls-6,.cls-7,.cls-8,.cls-9{stroke:#000;stroke-linecap:round;stroke-linejoin:round;}.cls-2{fill:#dc7681;}.cls-10,.cls-11,.cls-12,.cls-13,.cls-2,.cls-3,.cls-4,.cls-5,.cls-6,.cls-7,.cls-8,.cls-9{stroke-width:4.99px;}.cls-3{fill:#e9bbc0;}.cls-4{fill:#783925;}.cls-5{fill:#9c4c1f;}.cls-6{fill:#af6f43;}.cls-7{fill:#d69b5c;}.cls-8{fill:#f8c681;}.cls-9{fill:#dfcdc9;}.cls-10{fill:#697083;}.cls-11{fill:#4e5566;}.cls-12{fill:#333742;}.cls-13{fill:#2a211b;}</style></defs><g id="Layer_2" data-name="Layer 2"><g id="Lige_linje" data-name="Lige linje"><g id="Unghanekorets"><path id="S" class="cls-1" d="M2710.24,3.73c-12.53-.61-25.63-1.14-42,2.72-14.2,3.34-26.44,6.22-34.89,16.71-.53.66-12.8,25.59-6.1,41.2a50.34,50.34,0,0,0,25.65,26.05c13.81,6.45,18,6.73,34.89,13.6,17.28,7,25.68,9.86,29.37,18.48,5.28,12.37,3.66,19.48,1.54,22.44-12.71,17.77-23.28,17.48-37.27,20-15.18,2.73-38.67,3.88-46.82,3l-12.61,26a218.63,218.63,0,0,0,35.31,6.61c21.5,2.21,39.57,4.07,59.28-3.5,5.61-2.16,24.05-9.52,36.58-28,1.56-2.3,12.68-29.41-1.47-56.89-8.37-16.25-25-24.66-32.38-28.37-22.05-11.14-38.08-7.79-44.14-19.44-3.37-6.47-6.93-16.16-2.52-21.38,5-5.87,9.58-11.35,23.54-15.54,21.19-6.36,37.1-.11,43.51,5.05s10.65,4.14,13.88,5.83q4.2-13.21,8.41-26.43A243.51,243.51,0,0,0,2710.24,3.73Z"/><path id="T" class="cls-2" d="M2413.85,3.92c22.69-.5,42-.75,57-.88,24.07-.21,38.13-.34,57,0,22.39.39,41.2,1.25,55,2a46.63,46.63,0,0,1,.85,7.44,45.38,45.38,0,0,1-.3,6.86q-13.66.36-28.24,1.31c-12.88.86-25.22,2-37,3.45-1.88,24.08-2.9,50.29-2.52,78.35a859.93,859.93,0,0,0,6.46,94,94.19,94.19,0,0,1-46.74,4.41q.84-42.44-.08-88-1-45.16-3.67-87.21c-8.44-1.85-17.51-3.54-27.18-4.93-11.71-1.68-22.74-2.69-32.94-3.24a30.17,30.17,0,0,1,2.37-13.54Z"/><path id="E" class="cls-3" d="M2260.25,6a134,134,0,0,1,23.85-3c14.5-.54,23.65,1.5,41.91,3.76,8.29,1,20.24,2.32,34.91,3.23-.29,1.9-.59,3.8-.88,5.71a101.83,101.83,0,0,1-14.39,3.76,106.12,106.12,0,0,1-47.26-2.29q1.26,19.72,2,40.55.64,19.54.71,38.19a152.86,152.86,0,0,1,33.6,1.57,11.43,11.43,0,0,1,.24,12.19l-34.77-4.29c-1.71,11.36-3.18,23.35-4.32,35.91-1.47,16.26-2.23,31.7-2.46,46.17q18.39-1.22,37.34-2.83,18.75-1.6,36.87-3.49a20.17,20.17,0,0,1,5.61,14.81,304.84,304.84,0,0,1-46.93,4.82c-12.7.3-19.85-.35-38.07-.09-14.77.21-26.84.88-34.75,1.42,2.52-30.73,4.12-57,5.17-77.49,1.09-21.45,2-40.16,2.27-65.33C2261.06,37.78,2260.69,19.6,2260.25,6Z"/><path id="R" class="cls-4" d="M2174.12,124.61q-14.16-25.87-26.5-50.75a72,72,0,0,0,19.23-2.62c8.15-2.27,13.93-3.87,17.92-8.8,5.08-6.27,4.25-14.22,3.28-23.51-.94-8.95-2.54-24.21-13.08-30.57-5.11-3.08-9.58-2.41-18.38-2.24-21,.42-19.42-2.89-43.11-3.53a264.6,264.6,0,0,0-49.85,3.46q-1.64,45.62-2.47,92.74-.88,50.15-.74,98.65a117.75,117.75,0,0,1,39.85,4.25l9.21-6.38q-2.4-31.51-4-64.65-1.28-27.19-1.86-53.37a114.93,114.93,0,0,1,25.69-.77c7.43,17.76,14.69,32.55,20.67,43.9,6.93,13.19,15.54,29.42,29.4,49,7.88,11.16,15.12,20.09,20.53,26.44a64.5,64.5,0,0,0,7.7-.06,66.37,66.37,0,0,0,7.51-1C2201.45,172.85,2187.7,149.43,2174.12,124.61Zm-31.51-60.72a269.9,269.9,0,0,1-38.08-3.26q1-11.24,2.38-23,1.34-11.46,2.93-22.37a57.27,57.27,0,0,1,11.84-.38c8.92.63,15.4,3.21,23.8,6.64C2161.37,28,2163,28.92,2164,30.6c3.86,6.47,1,14.9-.15,18.49-1.36,4.07-3,8.12-7,11.17C2152.17,63.81,2146.76,63.91,2142.61,63.89Z"/><path id="O" class="cls-5" d="M2008.89,34.32c-5.41-14.75-11.82-21-19.52-25.72-5.23-3.18-10.7-3.63-21.63-4.52-15.67-1.27-27.37-2.22-40.34,3.32-11.11,4.74-17.77,12-22.08,16.71-3.44,3.8-13,15.1-20.6,42.06-5,17.64-11.51,40.74-6.19,70.27,3.18,17.65,6.5,36.07,22.56,50.11,18.52,16.2,41.69,15.83,49,15.72,7.79-.13,27.15-.44,43.66-14,13.26-10.9,17.49-24.44,22.31-39.83,9-28.7,5.83-53.14,4-66.05C2018.08,67.81,2016.82,56,2008.89,34.32Zm-9.67,19.21,7.45,55.29c.37,10.8.75,21.71-3.42,34.88-2.16,6.85-6.89,21.18-20.39,32.75-5.11,4.38-21.46,18.4-34.76,13.35s-15.87-25.92-17.75-40.65c-2.69-21.07-1.75-24.85.82-60.08,2.39-32.73,3.45-47.59,14.77-59.64a43,43,0,0,1,16.72-10.67c3.65-1.13,11.07-3.42,18.29-.61C1991,22,1996.21,44.34,1999.22,53.53Z"/><path id="K" class="cls-6" d="M1681.31,12.41a21.13,21.13,0,0,1,7.13-9.15,119,119,0,0,1,44,3.43q-.36,21.06.27,43.8c.55,18.7,1.63,36.57,3.09,53.56,13.24-14.66,26.74-30.32,40.35-47q21.34-26.19,39.52-51.18a55.42,55.42,0,0,1,8.45-1.69,54.5,54.5,0,0,1,9-.32c-10,15.14-21.3,31-34.19,47.32A668.49,668.49,0,0,1,1743,113.33c12.56,14,29,27.35,45.83,42.41,17.85,16,33.38,30.94,49.47,42.32l-12.71,2.05q-21-16.52-43.1-33.16-25-18.82-49.45-36.34.95,15.91,2,32,1.27,19.71,2.66,39.18l-7.59-1.54-15.39-.76-20.31-1-5.91.48,1.61-6.17c-1.63-38.85.24-68,2.34-87.8a389.84,389.84,0,0,0,2.86-50.37,360.91,360.91,0,0,0-2.56-38.94l-6.25-1.78Z"/><path id="E-2" data-name="E" class="cls-7" d="M1493.74,5.73a269.18,269.18,0,0,1,32.55-3.07c5.14-.09,10.3.06,10.3.06,5.52.17,9.83.52,12.74.76,35.11,2.91,86.17,8.07,91.3,8.59.63,2.81,1.21,5.89,1.65,9.21.4,3,.64,5.77.78,8.39a277.26,277.26,0,0,1-47.9-.52,275.38,275.38,0,0,1-49-9.34q-1,15.77-2,31.52-1.28,19.67-2.59,39.35a241.74,241.74,0,0,1,63.32,13.74c.49,2.25,1,4.61,1.38,7.06q.69,4,1.12,7.77c-10.84-.64-22.25-1.6-34.17-3s-23.49-3.12-34.28-5q.22,13.92.38,27.94.24,21.81.34,43.39a144.38,144.38,0,0,1,76,5.72c.2,2.26.33,4.69.35,7.27,0,2.2,0,4.3-.14,6.27-18.6-1.27-38.2-2.11-58.73-2.35-22.44-.26-43.81.22-64,1.24-2.13-33.65-3.25-69.6-2.86-107.61C1490.55,62.55,1491.8,33.38,1493.74,5.73Z"/><path id="N" class="cls-8" d="M1262.51,4.09c9.11-.87,19.13-1.42,29.94-1.39a308.44,308.44,0,0,1,32.28,1.78c14.51,27.75,30.84,56.76,49.22,86.65,14.87,24.18,29.81,46.87,44.59,68.1q5-42.91,10.78-86.85,4.41-33.36,9.14-66a49.37,49.37,0,0,1,7-1.41,48.63,48.63,0,0,1,6.4-.4q-6.29,43.23-11.05,90.09c-3.63,36.3-6.14,71.24-7.75,104.68a26.09,26.09,0,0,1-11.2-.48q-24.68-39.58-51.2-80.12-23.52-35.92-47-70.19c-2.07,21-3.66,43.25-4.54,66.53-1.16,30.73-1,59.74.14,86.82-5.2,0-10.65-.22-16.34-.57-6-.37-11.73-.91-17.15-1.56q-1.36-47.32-3.15-94.64-1.62-43.32-3.61-86.63l-15.89,2.58a35.32,35.32,0,0,1-1.38-8.61A35,35,0,0,1,1262.51,4.09Z"/><path id="A" class="cls-9" d="M1188,137.83Q1174.59,115.4,1161.19,93a.52.52,0,0,1-.06-.13l-37-89.61c-10.88-.05-12.48-.24-24.38.32q-16.47.79-31.61,2.29a.91.91,0,0,0-.75.53L1065,11.71c0,.06-1.15,2.52-1.87,4.09a.92.92,0,0,0,.82,1.3l13.15.34a.93.93,0,0,1,.85,1.22Q1065.75,54,1054,91.39q-14,44.69-25.73,87.36a.62.62,0,0,1-.12.26q-3.37,5.16-6.86,10.36-3.19,4.75-6.36,9.42a.91.91,0,0,0,.72,1.43q9.75.42,19.67.73,13.67.45,27,.68a.93.93,0,0,0,.94-1l-.29-6.38a1,1,0,0,1,.07-.38q7.62-19,16.09-38.73,8-18.56,16.09-36.17a.91.91,0,0,1,.75-.53l28.79-3h.1l26.95.13a.91.91,0,0,1,.76.4l29.58,43.53L1211.36,202a.93.93,0,0,0,1.12.33l4.92-2L1223,198a.93.93,0,0,0,.44-1.33Q1205.67,167.27,1188,137.83Zm-41.29-38c-7.34-.61-15-1.09-23-1.39-6.89-.26-18.68-2.24-25.14-2.23,3.6-8.69,4.88-11.1,9.69-20.65,4.28-8.46,8.63-16.33,12.94-23.61,4.5,4.61,8.06,12.38,12.92,20.89C1140.42,83.76,1145.24,92.6,1146.74,99.85Z"/><path id="H" class="cls-10" d="M781.57,9.05a175.63,175.63,0,0,1,63.29-5.49q1.95,24.06,3.93,48.1,1.94,23.64,3.91,47.26,16.15.81,33.47,1c14.12.16,21.09-.88,34.15-.3a240.68,240.68,0,0,1,25.55,2.52q3.24-23.39,6.47-46.78,3.54-25.56,7.07-51.13a80.1,80.1,0,0,1,8.17-.64,78.88,78.88,0,0,1,8.95.28Q972,50.33,967.26,93.34c-4,36.73-5.22,46-7.73,57.59-.76,3.53-2.57,11.54-4.1,22.66A267.16,267.16,0,0,0,953,202l-12.83-.42q.15-19.5,1.23-40.57,1.11-20.75,3-39.9a188.31,188.31,0,0,0-25.53-3.41c-13.55-.87-24.92-.17-36.46.24a194.11,194.11,0,0,1-38-1.62c-.31,12.8-.14,26.65.75,41.39.95,15.85,2.61,30.58,4.65,44.05-6.35.05-13.07-.1-20.12-.51-5.59-.32-11-.79-16.06-1.36q-5.58-48.71-10.72-97.46-4.14-39.4-8-78.84l-11.92.39Q782.32,16.5,781.57,9.05Z"/><path id="G" class="cls-11" d="M736.88,129.53q-.42,17.16-1.22,34.91-.75,16.84-1.81,33.13l-9.29-.16q-.18-10.83-.38-21.67a175,175,0,0,1-19.25,10.65c-11.11,5.27-31.38,14.64-58.47,15.68-12.06.46-20.08,1.08-30.36-2.43-17.7-6-27.58-18.86-31-23.34-2.9-3.88-9.35-13.3-14.81-39.88-6.57-32-10.52-51.25-2-74.1a84.33,84.33,0,0,1,48.94-50.55C648-1.15,676.64,3.86,688.15,6c15.65,3,27,5.09,37.73,14.86,4.56,4.17,14.54,14.75,16.92,31.48a52.65,52.65,0,0,1-4.13,28.77l-10.33-.93a111.7,111.7,0,0,0-.92-26.61c-1.68-10.76-2.7-17.3-7.69-24.17-6.87-9.43-16.48-12.94-20.3-14.28-9.82-3.45-18.13-2.52-23.77-1.83a65.66,65.66,0,0,0-29.31,11.2c-4.48,3.11-10.24,7.12-14.54,14.19-6.38,10.48-5.76,21.41-5.43,28.33.69,14.43.23,21.67,1.27,63.94,0,0,.38,15.55,5.77,37.27,1.12,4.53,2.51,9.43,6.8,13.2,5.88,5.18,13.57,5.06,21.29,4.83,9.45-.28,23.59-.7,36.89-11.18A53.42,53.42,0,0,0,716,149.35l-23,1.46-1.39-18.47c9-4.74,15.54-4.87,19.92-4.08,4.68.84,7.84,2.91,14.17,3.06A31.86,31.86,0,0,0,736.88,129.53Z"/><path id="N-2" data-name="N" class="cls-12" d="M281.48,9.3a214.66,214.66,0,0,1,74.11-5.17q30.15,40.11,65,82.17c24,28.85,47.73,55.93,71,81.29l4.86-4.64q5.13-44.76,9.17-91.72,2.88-33.77,5-66.51a62.13,62.13,0,0,1,8.13-.95,64.14,64.14,0,0,1,6.51,0c-.17,24.22-1,49.54-2.71,75.88-2.84,43.84-7.69,84.78-13.71,122.51a446.36,446.36,0,0,1-33.2-33.28c-14.67-16.24-33-37.3-39.49-45.68s-23.33-29.54-30.25-36.3S382.33,62.7,375.1,58.21c.12,20.25.76,41.44,2.07,63.5,1.6,27,4,52.65,7.05,76.79a143,143,0,0,1-51.75,1q-5.87-44.52-11.35-89.09-5.62-45.73-10.86-91.5a40.81,40.81,0,0,0-24.67,4.62,12.83,12.83,0,0,1-4.51-7A12.7,12.7,0,0,1,281.48,9.3Z"/><path id="U" class="cls-13" d="M2.86,7.37A56.58,56.58,0,0,0,14.61,10,61,61,0,0,0,41,6.93C51.08,3.64,70.5,1.34,110.72,4.64c-.39,21-.09,43.44,1.17,67.09,0,0,.2,12.74,7.63,79,1,8.54,2.18,18.33,9.63,26.56,12.29,13.57,31.92,13,34.51,12.88,29.55-1.39,45.93-31,47.56-34.09,4.92-9.23,5.85-22.56,7.51-48.86,1.76-27.87.52-40,2.06-73.88.56-12.41,1.26-22.52,1.75-29a41.66,41.66,0,0,0,8.53,1.41,41,41,0,0,0,11.41-1c-4,41.13-6.54,72.09-8,97.44a166.57,166.57,0,0,1-7.83,43c-4.64,14.39-8.25,25.15-18.14,35-12.39,12.3-27.3,15.84-39.41,18.72-8.61,2.05-19.45,4.51-33.35,2.52a79.82,79.82,0,0,1-38.35-17.21c-14-11.55-20-24.71-25.7-37.6-7.13-16.15-9.29-28.21-14.66-61C52.69,59,49.24,37.12,47,22.42a132.94,132.94,0,0,1-22.77,1.64A133.93,133.93,0,0,1,2.49,22Q2.69,14.68,2.86,7.37Z"/></g></g></g></svg>