<svg xmlns="http://www.w3.org/2000/svg" viewBox="0 0 2416 205.38"><defs><style>.cls-1{fill:#272e40;stroke-width:4.35px;}.cls-1,.cls-10,.cls-11,.cls-2,.cls-3,.cls-4,.cls-5,.cls-6,.cls-7,.cls-8,.cls-9{stroke:#000;stroke-linecap:round;stroke-linejoin:round;}.cls-2{fill:#5c6478;stroke-width:4.24px;}.cls-3{fill:#768689;stroke-width:4.46px;}.cls-4{fill:#6d7475;stroke-width:4.61px;}.cls-5{fill:#f1ecf9;stroke-width:4.75px;}.cls-6{fill:#f8c681;stroke-width:4.72px;}.cls-7{fill:#cf9356;stroke-width:4.6px;}.cls-8{fill:#a26039;stroke-width:4.59px;}.cls-9{fill:#7b4c41;stroke-width:4.7px;}.cls-10{fill:#b6555e;stroke-width:4.78px;}.cls-11{fill:#c76d76;stroke-width:4.64px;}</style></defs><g id="Layer_2" data-name="Layer 2"><g id="Lige_linje" data-name="Lige linje"><g id="Sangsamling"><path class="cls-1" d="M2375.68,66.41l27.1-4.82c1-6.9,1.49-18.67-6-30.13-17.39-26.5-65.38-33-99.38-26.52-6.4,1.22-47.4,13.2-58.72,32.55s-2.94,58.06-1.5,73.52,11.56,62,25.19,72c16.53,12.11,32.58,19.62,54.61,19.59a198.27,198.27,0,0,0,79.8-16.87q-.26,6.22-.5,12.46l17.56-.81c.17-16.87-3-40.07-2.79-56.95-18.06-2.28-32.75-3.14-50.81-5.42-1.17,2.68-2.44,10.27-3.61,12.95l30.61,6.83c-5.24,3.27-13.69,18.71-24.48,22-5,1.5-32,9.41-55.46-5.25-20.19-12.63-15.92-63.57-17.45-81s-.36-41.77,11.43-55.41,25.25-12.88,38-12.62,20.34,2.34,30.61,16.78S2375.61,62.8,2375.68,66.41Z"/><path class="cls-2" d="M2015.34,192.28c2.49-57.51-5.1-115.36-2.61-172.87h-19q-.56-6.94-1.12-13.88c12.69-.86,35.46-1.4,48.15-2.26l109,156.64a752.28,752.28,0,0,1-1.49-85.54c1-24.51,3.09-47.68,6-69.37l23.89-2.31q1.57,52.05,1.49,106.36-.11,46.49-1.49,91.33l-38.82,1.15q-21.15-28.35-44.78-57.8c-14.46-18-32.67-70.11-47.06-86.83,1.52,20.85,6.32,77.25,6.75,99.55q.45,23.66,0,46.24Z"/><path class="cls-3" d="M1804.61,197.21c0-7.41-4.65-18.52-4.65-25.93,10.84-.62,36.88.38,47.71-.24q4.32-45.15,7-92.59,1.5-27.21,2.33-53.71c-13.17,0-29.91.25-43.07.25q-3.5-11.11-7-22.23l132.39,5.56q-3.49,13.89-7,27.78c-17-2.47-38.74-4-55.77-6.48q-1.17,73.14-2.32,146.29c15.48-.62,35.64-2.16,51.12-2.78q1.15,14.82,2.32,29.63C1889,200.29,1843.32,199.68,1804.61,197.21Z"/><path class="cls-4" d="M1631.38,13.16l-4.65,183.75c43.36,2,72.9,4,116.26,5.93,1.54-8.56,2.17-23.1,3.72-31.66-31-5.93-58.69,3.57-89.66-2.35,2.49-50.57-4.73-112.82-2.23-163.39l-24.73-2.6Z"/><path class="cls-5" d="M1392.32,200.82q4.44-50.68,8.87-101.35l-7.71-76.66c-5.06,2.63-11.43,1.69-15.1-2.1a10,10,0,0,1-1.16-12.56L1433,6.05c14.33,24.09,34.71,45.73,49,69.81,20.76-20.18,40.4-38.95,51.09-69.32,16.65,0,23.74-3.63,40.39-3.63L1570,115.1l3.51,87.81-37.16-1c0-37.7,3-100,3-137.74-20.13,14-39.79,45.72-59.92,59.69-14.71-17.46-34-42.24-48.73-59.69,1.16,41.53,3.48,97.25,4.65,138.78Z"/><path class="cls-6" d="M1277,106.3,1229.37,2.54,1180.6,5.65V19.12l13.94,5.18A734.94,734.94,0,0,1,1140,202.54l47.61-4.14,16.26-72.54h52.25q15.11,35.74,30.2,71.5l36-6.22Zm-69.65-15.68q8.71-19.68,17.42-39.38l20.9,38.35Z"/><path class="cls-7" d="M931.86,176.45a104.54,104.54,0,0,0,31.74,19c31.64,12.1,60.41,6.51,69.68,4.59,15.53-3.22,25.53-9.35,32.23-21.53,5.39-9.81.41-23.88-3.1-32.52-10.05-24.74-12.64-32-24.26-38.19s-28.9-12.39-42.32-21.16-25.29-13.56-25.8-31,7.34-19.29,15-22.19c22.5-8.58,45.7,3.46,61.45,16,6.42,5.12,11.69,9.23,13.94,12.43l26.32-14.4c-4.31-6.78-14.22-20.2-33.29-30.76A112.79,112.79,0,0,0,1001.54,3c-12.16-.11-42.25-.37-58.84,17.67-18,19.57-7.46,46.92-3.1,58.25,3.44,8.92,21.72,20.41,39.2,31.43,19.26,12.14,28.56,11,40.77,24.5,6,6.61,12,18.53,6.2,28.15-4.45,7.33-21.21,12-30.43,12.13-12.4.2-17.67-7.23-40.25-18.32A223.47,223.47,0,0,0,931.86,147Z"/><path class="cls-8" d="M761.89,32.74c18.09-17.29,37.69-17.68,58.43-12.3s30,19.49,31.28,28.43.5,37.69-.31,40.21H873.9c2.35-8.68,12-53.21-5.87-65.78C837.25,1.63,760.86-5.15,735.23,12c-14.55,9.73-23,36-30.43,67.41-12.94,55-4.32,75.56,14,96.43,23.9,27.31,77.13,34.4,112,17.06a74.83,74.83,0,0,0,21.48-16q1.14,9,2.27,18.06l14.7-1q1.13-27.1,2.26-54.19l-55.41-4v14.05l29.4,2a57.91,57.91,0,0,1-23.75,20.07c-24.51,21-53.33,13.17-66.72-14C736.44,115,743.79,50,761.89,32.74Z"/><path class="cls-9" d="M469.22,201.1l12-87.13q1.56-44.32,3.13-88.66L466.77,23q-.52-10.29-1-20.56l51.09.15C537.74,45.56,591.13,119,612,162c1.55-41.58,2-116.91,3.52-158.49,11.87-1.14,17.93,1,29.8-.1-4.41,33.29-7.87,69.34-9.71,107.88-1.53,32.12-1.79,62.6-1.13,91.21l-36-2.06Q555,122.29,511.41,44.16q-1.16,79.16-2.32,158.31Z"/><path class="cls-10" d="M364.06,103.86c-16.2-32.2-21.31-68.3-37.51-100.49a147.15,147.15,0,0,1-28.84.89c-14.8-1-25.17-4.07-28.84.88-2,2.64-1.24,6.49-.39,9.21l19,1.42c-20.39,53.47-29.58,106.72-50,160.19-2.71,8.73-16.61,17.7-19.32,26.43h44.9q-1.35-7.08-2.71-14.16c9.68-30.46,19.84-49.39,29.52-79.85l53.42-3.18c15.48,35.41,24.65,61.78,40.13,97.19,7.74-2.83,21.32-1.26,29.06-4.09C400,167.81,376.5,134.34,364.06,103.86ZM292.32,86.35c6.54-12.5,12.59-36.57,19.13-49.06C318.5,49.15,326,72.59,333.1,84.45Z"/><path class="cls-11" d="M151,53.51,164.9,34.14c-7.28-6.66-33-28.49-72.77-30.71-12.45-.69-42.78-2.38-65,16.69-17.75,15.21-27.3,41-17,60.76,9,17.3,30.83,25.53,41,29.37,21.5,8.11,31.76,4.07,45.67,14.69,1.44,1.1,19.24,15,14.71,28C109,160.11,101,163.53,91.35,167.67c-22.58,9.67-44.59,7.54-52.64,6.67A119.88,119.88,0,0,1,13.93,169L2.32,192.37a211.8,211.8,0,0,0,65.81,10.68c28,.08,67,.18,82.84-22,13.31-18.61,6.8-47.76-10.07-64.09s-34.62-10.63-65-33.38c-8.55-6.4-27.31-20.44-23.23-30,3.86-9.06,26.08-9.67,38.71-10A159.91,159.91,0,0,1,151,53.51Z"/></g></g></g></svg>